<mxfile host="Electron" modified="2025-03-18T15:37:32.049Z" agent="Mozilla/5.0 (X11; Linux x86_64) AppleWebKit/537.36 (KHTML, like Gecko) draw.io/24.0.4 Chrome/120.0.6099.109 Electron/28.1.0 Safari/537.36" etag="-s3vRbgPO5pn0Jt3ekTl" version="24.0.4" type="device">
  <diagram name="Page-1" id="nVotaBMBcOUi8ZcSs_nK">
    <mxGraphModel dx="1434" dy="873" grid="1" gridSize="10" guides="1" tooltips="1" connect="1" arrows="1" fold="1" page="1" pageScale="1" pageWidth="1169" pageHeight="827" math="0" shadow="0">
      <root>
        <mxCell id="0" />
        <mxCell id="1" parent="0" />
        <mxCell id="W2W0EHCvLcg0L5Kenefl-169" value="" style="group" vertex="1" connectable="0" parent="1">
          <mxGeometry x="110" y="132.5" width="913" height="329.5" as="geometry" />
        </mxCell>
        <mxCell id="W2W0EHCvLcg0L5Kenefl-11" value="&lt;b&gt;rdm-invenio-ui-blue&lt;/b&gt;" style="rounded=1;whiteSpace=wrap;html=1;container=0;fillColor=#dae8fc;strokeColor=#6c8ebf;" vertex="1" parent="W2W0EHCvLcg0L5Kenefl-169">
          <mxGeometry x="240" y="67.5" width="150" height="60" as="geometry" />
        </mxCell>
        <mxCell id="W2W0EHCvLcg0L5Kenefl-13" value="&lt;b&gt;rdm-invenio-api-blue&lt;/b&gt;" style="rounded=1;whiteSpace=wrap;html=1;container=0;fillColor=#dae8fc;strokeColor=#6c8ebf;" vertex="1" parent="W2W0EHCvLcg0L5Kenefl-169">
          <mxGeometry x="240" y="134.5" width="150" height="60" as="geometry" />
        </mxCell>
        <mxCell id="W2W0EHCvLcg0L5Kenefl-24" value="" style="endArrow=block;html=1;rounded=0;endFill=0;" edge="1" parent="W2W0EHCvLcg0L5Kenefl-169">
          <mxGeometry width="50" height="50" relative="1" as="geometry">
            <mxPoint x="395" y="130.5" as="sourcePoint" />
            <mxPoint x="447" y="130.5" as="targetPoint" />
          </mxGeometry>
        </mxCell>
        <mxCell id="W2W0EHCvLcg0L5Kenefl-27" value="" style="group" vertex="1" connectable="0" parent="W2W0EHCvLcg0L5Kenefl-169">
          <mxGeometry y="22.5" width="140" height="97.19999999999999" as="geometry" />
        </mxCell>
        <mxCell id="W2W0EHCvLcg0L5Kenefl-20" value="" style="image;points=[];aspect=fixed;html=1;align=center;shadow=0;dashed=0;image=img/lib/allied_telesis/storage/Datacenter_Server_Rack_Storage_Unit_Small.svg;" vertex="1" parent="W2W0EHCvLcg0L5Kenefl-27">
          <mxGeometry x="62.599999999999994" y="30" width="77.4" height="67.2" as="geometry" />
        </mxCell>
        <mxCell id="W2W0EHCvLcg0L5Kenefl-25" value="&lt;font face=&quot;Courier New&quot;&gt;/invenio-data-dev&lt;/font&gt;" style="text;html=1;align=left;verticalAlign=middle;whiteSpace=wrap;rounded=0;" vertex="1" parent="W2W0EHCvLcg0L5Kenefl-27">
          <mxGeometry x="4" y="7" width="140" height="30" as="geometry" />
        </mxCell>
        <mxCell id="W2W0EHCvLcg0L5Kenefl-46" value="" style="labelPosition=right;align=left;strokeWidth=1;shape=mxgraph.mockup.markup.curlyBrace;html=1;shadow=0;dashed=0;strokeColor=#000000;direction=north;" vertex="1" parent="W2W0EHCvLcg0L5Kenefl-169">
          <mxGeometry x="211" y="81" width="20" height="100" as="geometry" />
        </mxCell>
        <mxCell id="W2W0EHCvLcg0L5Kenefl-1" value="&lt;b&gt;rdm-rabbitmq-dev&lt;/b&gt;" style="rounded=1;whiteSpace=wrap;html=1;container=0;" vertex="1" parent="W2W0EHCvLcg0L5Kenefl-169">
          <mxGeometry x="450" width="150" height="60" as="geometry" />
        </mxCell>
        <mxCell id="W2W0EHCvLcg0L5Kenefl-2" value="&lt;b&gt;rdm-redis-dev&lt;/b&gt;" style="rounded=1;whiteSpace=wrap;html=1;container=0;" vertex="1" parent="W2W0EHCvLcg0L5Kenefl-169">
          <mxGeometry x="450" y="67" width="150" height="60" as="geometry" />
        </mxCell>
        <mxCell id="W2W0EHCvLcg0L5Kenefl-61" style="edgeStyle=orthogonalEdgeStyle;rounded=0;orthogonalLoop=1;jettySize=auto;html=1;exitX=1;exitY=0.75;exitDx=0;exitDy=0;endArrow=block;endFill=0;" edge="1" parent="W2W0EHCvLcg0L5Kenefl-169" source="W2W0EHCvLcg0L5Kenefl-3" target="W2W0EHCvLcg0L5Kenefl-51">
          <mxGeometry relative="1" as="geometry" />
        </mxCell>
        <mxCell id="W2W0EHCvLcg0L5Kenefl-3" value="&lt;b&gt;rdm-opensearch-d1-dev&lt;/b&gt;" style="rounded=1;whiteSpace=wrap;html=1;container=0;" vertex="1" parent="W2W0EHCvLcg0L5Kenefl-169">
          <mxGeometry x="450" y="135" width="150" height="60" as="geometry" />
        </mxCell>
        <mxCell id="W2W0EHCvLcg0L5Kenefl-60" style="edgeStyle=orthogonalEdgeStyle;rounded=0;orthogonalLoop=1;jettySize=auto;html=1;exitX=1;exitY=0.5;exitDx=0;exitDy=0;endArrow=block;endFill=0;" edge="1" parent="W2W0EHCvLcg0L5Kenefl-169" source="W2W0EHCvLcg0L5Kenefl-4" target="W2W0EHCvLcg0L5Kenefl-54">
          <mxGeometry relative="1" as="geometry" />
        </mxCell>
        <mxCell id="W2W0EHCvLcg0L5Kenefl-4" value="&lt;b&gt;rdm-postgresql-1-dev&lt;/b&gt;" style="rounded=1;whiteSpace=wrap;html=1;container=0;" vertex="1" parent="W2W0EHCvLcg0L5Kenefl-169">
          <mxGeometry x="450" y="202" width="150" height="60" as="geometry" />
        </mxCell>
        <mxCell id="W2W0EHCvLcg0L5Kenefl-47" value="" style="group" vertex="1" connectable="0" parent="W2W0EHCvLcg0L5Kenefl-169">
          <mxGeometry x="610" y="18.5" width="160" height="120" as="geometry" />
        </mxCell>
        <mxCell id="W2W0EHCvLcg0L5Kenefl-48" value="" style="image;points=[];aspect=fixed;html=1;align=center;shadow=0;dashed=0;image=img/lib/allied_telesis/storage/Datacenter_Server_Rack_Storage_Unit_Small.svg;" vertex="1" parent="W2W0EHCvLcg0L5Kenefl-47">
          <mxGeometry x="62.599999999999994" y="30" width="77.4" height="67.2" as="geometry" />
        </mxCell>
        <mxCell id="W2W0EHCvLcg0L5Kenefl-49" value="&lt;font face=&quot;Courier New&quot;&gt;/opensearch-data-dev&lt;/font&gt;" style="text;html=1;align=left;verticalAlign=middle;whiteSpace=wrap;rounded=0;" vertex="1" parent="W2W0EHCvLcg0L5Kenefl-47">
          <mxGeometry width="150" height="30" as="geometry" />
        </mxCell>
        <mxCell id="W2W0EHCvLcg0L5Kenefl-90" value="&lt;b&gt;&lt;font style=&quot;font-size: 15px;&quot;&gt;4&lt;/font&gt;&lt;/b&gt;" style="ellipse;whiteSpace=wrap;html=1;aspect=fixed;fillColor=#e51400;fontColor=#ffffff;strokeColor=#B20000;" vertex="1" parent="W2W0EHCvLcg0L5Kenefl-47">
          <mxGeometry x="134" y="27" width="30" height="30" as="geometry" />
        </mxCell>
        <mxCell id="W2W0EHCvLcg0L5Kenefl-56" style="edgeStyle=orthogonalEdgeStyle;rounded=0;orthogonalLoop=1;jettySize=auto;html=1;exitX=1;exitY=0.25;exitDx=0;exitDy=0;entryX=0.003;entryY=0.42;entryDx=0;entryDy=0;entryPerimeter=0;endArrow=block;endFill=0;" edge="1" parent="W2W0EHCvLcg0L5Kenefl-169" source="W2W0EHCvLcg0L5Kenefl-3" target="W2W0EHCvLcg0L5Kenefl-48">
          <mxGeometry relative="1" as="geometry" />
        </mxCell>
        <mxCell id="W2W0EHCvLcg0L5Kenefl-22" value="" style="endArrow=block;html=1;rounded=0;endFill=0;" edge="1" parent="W2W0EHCvLcg0L5Kenefl-169">
          <mxGeometry width="50" height="50" relative="1" as="geometry">
            <mxPoint x="200" y="131.5" as="sourcePoint" />
            <mxPoint x="150" y="104.5" as="targetPoint" />
          </mxGeometry>
        </mxCell>
        <mxCell id="W2W0EHCvLcg0L5Kenefl-89" value="&lt;b&gt;&lt;font style=&quot;font-size: 15px;&quot;&gt;1&lt;/font&gt;&lt;/b&gt;" style="ellipse;whiteSpace=wrap;html=1;aspect=fixed;fillColor=#e51400;fontColor=#ffffff;strokeColor=#B20000;" vertex="1" parent="W2W0EHCvLcg0L5Kenefl-169">
          <mxGeometry x="130" y="45.5" width="30" height="30" as="geometry" />
        </mxCell>
        <mxCell id="W2W0EHCvLcg0L5Kenefl-92" value="&lt;b&gt;&lt;font style=&quot;font-size: 15px;&quot;&gt;6&lt;/font&gt;&lt;/b&gt;" style="ellipse;whiteSpace=wrap;html=1;aspect=fixed;fillColor=#e51400;fontColor=#ffffff;strokeColor=#B20000;" vertex="1" parent="W2W0EHCvLcg0L5Kenefl-169">
          <mxGeometry x="692.6" y="217.5" width="30" height="30" as="geometry" />
        </mxCell>
        <mxCell id="W2W0EHCvLcg0L5Kenefl-125" value="" style="endArrow=block;html=1;rounded=0;endFill=0;" edge="1" parent="W2W0EHCvLcg0L5Kenefl-169">
          <mxGeometry width="50" height="50" relative="1" as="geometry">
            <mxPoint x="200" y="131.5" as="sourcePoint" />
            <mxPoint x="150" y="161.5" as="targetPoint" />
          </mxGeometry>
        </mxCell>
        <mxCell id="W2W0EHCvLcg0L5Kenefl-123" value="" style="image;points=[];aspect=fixed;html=1;align=center;shadow=0;dashed=0;image=img/lib/allied_telesis/storage/Datacenter_Server_Rack_Storage_Unit_Small.svg;" vertex="1" parent="W2W0EHCvLcg0L5Kenefl-169">
          <mxGeometry x="62.599999999999994" y="130.3" width="77.4" height="67.2" as="geometry" />
        </mxCell>
        <mxCell id="W2W0EHCvLcg0L5Kenefl-124" value="&lt;font face=&quot;Courier New&quot;&gt;/invenio-log-dev&lt;/font&gt;" style="text;html=1;align=left;verticalAlign=middle;whiteSpace=wrap;rounded=0;" vertex="1" parent="W2W0EHCvLcg0L5Kenefl-169">
          <mxGeometry y="190.5" width="140" height="30" as="geometry" />
        </mxCell>
        <mxCell id="W2W0EHCvLcg0L5Kenefl-126" value="&lt;b&gt;&lt;font style=&quot;font-size: 15px;&quot;&gt;2&lt;/font&gt;&lt;/b&gt;" style="ellipse;whiteSpace=wrap;html=1;aspect=fixed;fillColor=#e51400;fontColor=#ffffff;strokeColor=#B20000;" vertex="1" parent="W2W0EHCvLcg0L5Kenefl-169">
          <mxGeometry x="32.599999999999994" y="167.5" width="30" height="30" as="geometry" />
        </mxCell>
        <mxCell id="W2W0EHCvLcg0L5Kenefl-129" value="" style="endArrow=block;html=1;rounded=0;endFill=0;entryX=1.027;entryY=0.193;entryDx=0;entryDy=0;entryPerimeter=0;" edge="1" parent="W2W0EHCvLcg0L5Kenefl-169" target="W2W0EHCvLcg0L5Kenefl-132">
          <mxGeometry width="50" height="50" relative="1" as="geometry">
            <mxPoint x="200" y="131.5" as="sourcePoint" />
            <mxPoint x="159" y="171.5" as="targetPoint" />
          </mxGeometry>
        </mxCell>
        <mxCell id="W2W0EHCvLcg0L5Kenefl-131" value="&lt;b&gt;&lt;font style=&quot;font-size: 15px;&quot;&gt;3&lt;/font&gt;&lt;/b&gt;" style="ellipse;whiteSpace=wrap;html=1;aspect=fixed;fillColor=#e51400;fontColor=#ffffff;strokeColor=#B20000;" vertex="1" parent="W2W0EHCvLcg0L5Kenefl-169">
          <mxGeometry x="140" y="202" width="30" height="30" as="geometry" />
        </mxCell>
        <mxCell id="W2W0EHCvLcg0L5Kenefl-132" value="" style="image;aspect=fixed;perimeter=ellipsePerimeter;html=1;align=center;shadow=0;dashed=0;spacingTop=3;image=img/lib/active_directory/generic_server.svg;" vertex="1" parent="W2W0EHCvLcg0L5Kenefl-169">
          <mxGeometry x="40" y="249.5" width="44.8" height="80" as="geometry" />
        </mxCell>
        <mxCell id="W2W0EHCvLcg0L5Kenefl-133" value="&lt;span style=&quot;font-family: &amp;quot;Courier New&amp;quot;;&quot;&gt;ldap{0,1}.ae.ic.ac.uk&lt;/span&gt;" style="text;html=1;align=center;verticalAlign=middle;whiteSpace=wrap;rounded=0;" vertex="1" parent="W2W0EHCvLcg0L5Kenefl-169">
          <mxGeometry x="132" y="289.5" width="60" height="30" as="geometry" />
        </mxCell>
        <mxCell id="W2W0EHCvLcg0L5Kenefl-51" value="" style="image;points=[];aspect=fixed;html=1;align=center;shadow=0;dashed=0;image=img/lib/allied_telesis/storage/Datacenter_Server_Rack_Storage_Unit_Small.svg;" vertex="1" parent="W2W0EHCvLcg0L5Kenefl-169">
          <mxGeometry x="716.6" y="122.89999999999998" width="77.4" height="67.2" as="geometry" />
        </mxCell>
        <mxCell id="W2W0EHCvLcg0L5Kenefl-52" value="&lt;font face=&quot;Courier New&quot;&gt;/opensearch-log-dev&lt;/font&gt;" style="text;html=1;align=left;verticalAlign=middle;whiteSpace=wrap;rounded=0;" vertex="1" parent="W2W0EHCvLcg0L5Kenefl-169">
          <mxGeometry x="773" y="117.70000000000002" width="140" height="30" as="geometry" />
        </mxCell>
        <mxCell id="W2W0EHCvLcg0L5Kenefl-91" value="&lt;b&gt;&lt;font style=&quot;font-size: 15px;&quot;&gt;5&lt;/font&gt;&lt;/b&gt;" style="ellipse;whiteSpace=wrap;html=1;aspect=fixed;fillColor=#e51400;fontColor=#ffffff;strokeColor=#B20000;" vertex="1" parent="W2W0EHCvLcg0L5Kenefl-169">
          <mxGeometry x="796" y="139.5" width="30" height="30" as="geometry" />
        </mxCell>
        <mxCell id="W2W0EHCvLcg0L5Kenefl-54" value="" style="image;points=[];aspect=fixed;html=1;align=center;shadow=0;dashed=0;image=img/lib/allied_telesis/storage/Datacenter_Server_Rack_Storage_Unit_Small.svg;" vertex="1" parent="W2W0EHCvLcg0L5Kenefl-169">
          <mxGeometry x="722.6" y="227.5" width="77.4" height="67.2" as="geometry" />
        </mxCell>
        <mxCell id="W2W0EHCvLcg0L5Kenefl-55" value="&lt;font face=&quot;Courier New&quot;&gt;/postgresql-data-dev&lt;/font&gt;" style="text;html=1;align=left;verticalAlign=middle;whiteSpace=wrap;rounded=0;" vertex="1" parent="W2W0EHCvLcg0L5Kenefl-169">
          <mxGeometry x="675.3" y="286.5" width="160" height="30" as="geometry" />
        </mxCell>
        <mxCell id="W2W0EHCvLcg0L5Kenefl-134" value="&lt;b&gt;rdm-invenio-ui-green&lt;/b&gt;" style="rounded=1;whiteSpace=wrap;html=1;container=0;fillColor=#d5e8d4;strokeColor=#82b366;" vertex="1" parent="1">
          <mxGeometry x="350" y="576.5" width="150" height="60" as="geometry" />
        </mxCell>
        <mxCell id="W2W0EHCvLcg0L5Kenefl-135" value="&lt;b&gt;rdm-invenio-api-green&lt;/b&gt;" style="rounded=1;whiteSpace=wrap;html=1;container=0;fillColor=#d5e8d4;strokeColor=#82b366;" vertex="1" parent="1">
          <mxGeometry x="350" y="643.5" width="150" height="60" as="geometry" />
        </mxCell>
        <mxCell id="W2W0EHCvLcg0L5Kenefl-136" value="" style="endArrow=block;html=1;rounded=0;endFill=0;" edge="1" parent="1">
          <mxGeometry width="50" height="50" relative="1" as="geometry">
            <mxPoint x="505" y="639.5" as="sourcePoint" />
            <mxPoint x="557" y="639.5" as="targetPoint" />
          </mxGeometry>
        </mxCell>
        <mxCell id="W2W0EHCvLcg0L5Kenefl-137" value="" style="group" vertex="1" connectable="0" parent="1">
          <mxGeometry x="110" y="531.5" width="140" height="97.19999999999999" as="geometry" />
        </mxCell>
        <mxCell id="W2W0EHCvLcg0L5Kenefl-138" value="" style="image;points=[];aspect=fixed;html=1;align=center;shadow=0;dashed=0;image=img/lib/allied_telesis/storage/Datacenter_Server_Rack_Storage_Unit_Small.svg;" vertex="1" parent="W2W0EHCvLcg0L5Kenefl-137">
          <mxGeometry x="62.599999999999994" y="30" width="77.4" height="67.2" as="geometry" />
        </mxCell>
        <mxCell id="W2W0EHCvLcg0L5Kenefl-139" value="&lt;font face=&quot;Courier New&quot;&gt;/invenio-data&lt;/font&gt;" style="text;html=1;align=left;verticalAlign=middle;whiteSpace=wrap;rounded=0;" vertex="1" parent="W2W0EHCvLcg0L5Kenefl-137">
          <mxGeometry x="4" y="7" width="140" height="30" as="geometry" />
        </mxCell>
        <mxCell id="W2W0EHCvLcg0L5Kenefl-153" value="&lt;b&gt;&lt;font style=&quot;font-size: 15px;&quot;&gt;11&lt;/font&gt;&lt;/b&gt;" style="ellipse;whiteSpace=wrap;html=1;aspect=fixed;fillColor=#e51400;fontColor=#ffffff;strokeColor=#B20000;" vertex="1" parent="W2W0EHCvLcg0L5Kenefl-137">
          <mxGeometry x="27" y="33.60000000000002" width="30" height="30" as="geometry" />
        </mxCell>
        <mxCell id="W2W0EHCvLcg0L5Kenefl-140" value="" style="labelPosition=right;align=left;strokeWidth=1;shape=mxgraph.mockup.markup.curlyBrace;html=1;shadow=0;dashed=0;strokeColor=#000000;direction=north;" vertex="1" parent="1">
          <mxGeometry x="321" y="590" width="20" height="100" as="geometry" />
        </mxCell>
        <mxCell id="W2W0EHCvLcg0L5Kenefl-141" value="&lt;b&gt;rdm-rabbitmq&lt;/b&gt;" style="rounded=1;whiteSpace=wrap;html=1;container=0;" vertex="1" parent="1">
          <mxGeometry x="560" y="509" width="150" height="60" as="geometry" />
        </mxCell>
        <mxCell id="W2W0EHCvLcg0L5Kenefl-142" value="&lt;b&gt;rdm-redis&lt;/b&gt;" style="rounded=1;whiteSpace=wrap;html=1;container=0;" vertex="1" parent="1">
          <mxGeometry x="560" y="576" width="150" height="60" as="geometry" />
        </mxCell>
        <mxCell id="W2W0EHCvLcg0L5Kenefl-143" style="edgeStyle=orthogonalEdgeStyle;rounded=0;orthogonalLoop=1;jettySize=auto;html=1;exitX=1;exitY=0.75;exitDx=0;exitDy=0;endArrow=block;endFill=0;" edge="1" source="W2W0EHCvLcg0L5Kenefl-144" target="W2W0EHCvLcg0L5Kenefl-163" parent="1">
          <mxGeometry relative="1" as="geometry" />
        </mxCell>
        <mxCell id="W2W0EHCvLcg0L5Kenefl-144" value="&lt;b&gt;rdm-opensearch-d1&lt;/b&gt;" style="rounded=1;whiteSpace=wrap;html=1;container=0;" vertex="1" parent="1">
          <mxGeometry x="560" y="644" width="150" height="60" as="geometry" />
        </mxCell>
        <mxCell id="W2W0EHCvLcg0L5Kenefl-145" style="edgeStyle=orthogonalEdgeStyle;rounded=0;orthogonalLoop=1;jettySize=auto;html=1;exitX=1;exitY=0.5;exitDx=0;exitDy=0;endArrow=block;endFill=0;" edge="1" source="W2W0EHCvLcg0L5Kenefl-146" target="W2W0EHCvLcg0L5Kenefl-166" parent="1">
          <mxGeometry relative="1" as="geometry" />
        </mxCell>
        <mxCell id="W2W0EHCvLcg0L5Kenefl-146" value="&lt;b&gt;rdm-postgresql-1&lt;/b&gt;" style="rounded=1;whiteSpace=wrap;html=1;container=0;" vertex="1" parent="1">
          <mxGeometry x="560" y="711" width="150" height="60" as="geometry" />
        </mxCell>
        <mxCell id="W2W0EHCvLcg0L5Kenefl-147" value="" style="group" vertex="1" connectable="0" parent="1">
          <mxGeometry x="720" y="527.5" width="160" height="120" as="geometry" />
        </mxCell>
        <mxCell id="W2W0EHCvLcg0L5Kenefl-148" value="" style="image;points=[];aspect=fixed;html=1;align=center;shadow=0;dashed=0;image=img/lib/allied_telesis/storage/Datacenter_Server_Rack_Storage_Unit_Small.svg;" vertex="1" parent="W2W0EHCvLcg0L5Kenefl-147">
          <mxGeometry x="62.599999999999994" y="30" width="77.4" height="67.2" as="geometry" />
        </mxCell>
        <mxCell id="W2W0EHCvLcg0L5Kenefl-149" value="&lt;font face=&quot;Courier New&quot;&gt;/opensearch-data&lt;/font&gt;" style="text;html=1;align=left;verticalAlign=middle;whiteSpace=wrap;rounded=0;" vertex="1" parent="W2W0EHCvLcg0L5Kenefl-147">
          <mxGeometry width="150" height="30" as="geometry" />
        </mxCell>
        <mxCell id="W2W0EHCvLcg0L5Kenefl-150" value="&lt;b&gt;&lt;font style=&quot;font-size: 15px;&quot;&gt;7&lt;/font&gt;&lt;/b&gt;" style="ellipse;whiteSpace=wrap;html=1;aspect=fixed;fillColor=#e51400;fontColor=#ffffff;strokeColor=#B20000;" vertex="1" parent="W2W0EHCvLcg0L5Kenefl-147">
          <mxGeometry x="134" y="27" width="30" height="30" as="geometry" />
        </mxCell>
        <mxCell id="W2W0EHCvLcg0L5Kenefl-151" style="edgeStyle=orthogonalEdgeStyle;rounded=0;orthogonalLoop=1;jettySize=auto;html=1;exitX=1;exitY=0.25;exitDx=0;exitDy=0;entryX=0.003;entryY=0.42;entryDx=0;entryDy=0;entryPerimeter=0;endArrow=block;endFill=0;" edge="1" source="W2W0EHCvLcg0L5Kenefl-144" target="W2W0EHCvLcg0L5Kenefl-148" parent="1">
          <mxGeometry relative="1" as="geometry" />
        </mxCell>
        <mxCell id="W2W0EHCvLcg0L5Kenefl-152" value="" style="endArrow=block;html=1;rounded=0;endFill=0;" edge="1" parent="1">
          <mxGeometry width="50" height="50" relative="1" as="geometry">
            <mxPoint x="310" y="640.5" as="sourcePoint" />
            <mxPoint x="260" y="613.5" as="targetPoint" />
          </mxGeometry>
        </mxCell>
        <mxCell id="W2W0EHCvLcg0L5Kenefl-154" value="&lt;b&gt;&lt;font style=&quot;font-size: 15px;&quot;&gt;9&lt;/font&gt;&lt;/b&gt;" style="ellipse;whiteSpace=wrap;html=1;aspect=fixed;fillColor=#e51400;fontColor=#ffffff;strokeColor=#B20000;" vertex="1" parent="1">
          <mxGeometry x="802.6" y="726.5" width="30" height="30" as="geometry" />
        </mxCell>
        <mxCell id="W2W0EHCvLcg0L5Kenefl-155" value="" style="endArrow=block;html=1;rounded=0;endFill=0;" edge="1" parent="1">
          <mxGeometry width="50" height="50" relative="1" as="geometry">
            <mxPoint x="310" y="640.5" as="sourcePoint" />
            <mxPoint x="260" y="670.5" as="targetPoint" />
          </mxGeometry>
        </mxCell>
        <mxCell id="W2W0EHCvLcg0L5Kenefl-156" value="" style="image;points=[];aspect=fixed;html=1;align=center;shadow=0;dashed=0;image=img/lib/allied_telesis/storage/Datacenter_Server_Rack_Storage_Unit_Small.svg;" vertex="1" parent="1">
          <mxGeometry x="172.6" y="639.3" width="77.4" height="67.2" as="geometry" />
        </mxCell>
        <mxCell id="W2W0EHCvLcg0L5Kenefl-157" value="&lt;font face=&quot;Courier New&quot;&gt;/invenio-log&lt;/font&gt;" style="text;html=1;align=left;verticalAlign=middle;whiteSpace=wrap;rounded=0;" vertex="1" parent="1">
          <mxGeometry x="110" y="699.5" width="140" height="30" as="geometry" />
        </mxCell>
        <mxCell id="W2W0EHCvLcg0L5Kenefl-158" value="&lt;b&gt;&lt;font style=&quot;font-size: 15px;&quot;&gt;10&lt;/font&gt;&lt;/b&gt;" style="ellipse;whiteSpace=wrap;html=1;aspect=fixed;fillColor=#e51400;fontColor=#ffffff;strokeColor=#B20000;" vertex="1" parent="1">
          <mxGeometry x="142.6" y="676.5" width="30" height="30" as="geometry" />
        </mxCell>
        <mxCell id="W2W0EHCvLcg0L5Kenefl-159" value="" style="endArrow=block;html=1;rounded=0;endFill=0;" edge="1" parent="1">
          <mxGeometry width="50" height="50" relative="1" as="geometry">
            <mxPoint x="310" y="640.5" as="sourcePoint" />
            <mxPoint x="196" y="450" as="targetPoint" />
          </mxGeometry>
        </mxCell>
        <mxCell id="W2W0EHCvLcg0L5Kenefl-163" value="" style="image;points=[];aspect=fixed;html=1;align=center;shadow=0;dashed=0;image=img/lib/allied_telesis/storage/Datacenter_Server_Rack_Storage_Unit_Small.svg;" vertex="1" parent="1">
          <mxGeometry x="826.6" y="631.9" width="77.4" height="67.2" as="geometry" />
        </mxCell>
        <mxCell id="W2W0EHCvLcg0L5Kenefl-164" value="&lt;font face=&quot;Courier New&quot;&gt;/opensearch-log&lt;/font&gt;" style="text;html=1;align=left;verticalAlign=middle;whiteSpace=wrap;rounded=0;" vertex="1" parent="1">
          <mxGeometry x="883" y="626.7" width="140" height="30" as="geometry" />
        </mxCell>
        <mxCell id="W2W0EHCvLcg0L5Kenefl-165" value="&lt;b&gt;&lt;font style=&quot;font-size: 15px;&quot;&gt;8&lt;/font&gt;&lt;/b&gt;" style="ellipse;whiteSpace=wrap;html=1;aspect=fixed;fillColor=#e51400;fontColor=#ffffff;strokeColor=#B20000;" vertex="1" parent="1">
          <mxGeometry x="906" y="648.5" width="30" height="30" as="geometry" />
        </mxCell>
        <mxCell id="W2W0EHCvLcg0L5Kenefl-166" value="" style="image;points=[];aspect=fixed;html=1;align=center;shadow=0;dashed=0;image=img/lib/allied_telesis/storage/Datacenter_Server_Rack_Storage_Unit_Small.svg;" vertex="1" parent="1">
          <mxGeometry x="832.6" y="736.5" width="77.4" height="67.2" as="geometry" />
        </mxCell>
        <mxCell id="W2W0EHCvLcg0L5Kenefl-167" value="&lt;font face=&quot;Courier New&quot;&gt;/postgresql-data&lt;/font&gt;" style="text;html=1;align=left;verticalAlign=middle;whiteSpace=wrap;rounded=0;" vertex="1" parent="1">
          <mxGeometry x="785.3" y="795.5" width="160" height="30" as="geometry" />
        </mxCell>
        <mxCell id="W2W0EHCvLcg0L5Kenefl-170" value="&lt;b&gt;&lt;font style=&quot;font-size: 15px;&quot;&gt;12&lt;/font&gt;&lt;/b&gt;" style="ellipse;whiteSpace=wrap;html=1;aspect=fixed;fillColor=#e51400;fontColor=#ffffff;strokeColor=#B20000;" vertex="1" parent="1">
          <mxGeometry x="250" y="500" width="30" height="30" as="geometry" />
        </mxCell>
      </root>
    </mxGraphModel>
  </diagram>
</mxfile>
